<svg width="70" height="70" viewBox="0 0 70 60" fill="none" xmlns="http://www.w3.org/2000/svg">
<path d="M34.5534 0C15.5012 0 0 13.2919 0 29.6287C0 45.9656 15.5012 59.2575 34.5534 59.2575C53.6057 59.2575 69.1069 45.9656 69.1069 29.6287C69.1069 13.2919 53.6057 0 34.5534 0ZM25.6919 9.11653H43.4098C51.716 9.11653 58.4751 14.9101 58.4751 22.0301V37.2229C58.4751 44.3452 51.7185 50.1409 43.415 50.1409H25.697C17.3909 50.1409 10.6318 44.3473 10.6318 37.2273V22.0346C10.6318 14.9123 17.3884 9.11653 25.6919 9.11653ZM25.6919 13.6748C20.3201 13.6748 15.9477 17.4262 15.9477 22.0346V37.2273C15.9477 41.8335 20.3227 45.5827 25.697 45.5827H43.415C48.7868 45.5827 53.1591 41.8313 53.1591 37.2229V22.0301C53.1591 17.424 48.7842 13.6748 43.4098 13.6748H25.6919ZM46.9607 17.4719C47.9388 17.4719 48.7309 18.1511 48.7309 18.9898C48.7309 19.8285 47.9388 20.5122 46.9607 20.5122C45.9826 20.5122 45.1853 19.8285 45.1853 18.9898C45.1853 18.1511 45.9826 17.4719 46.9607 17.4719ZM34.5534 18.2331C41.8814 18.2331 47.8432 23.3452 47.8432 29.6287C47.8432 35.9123 41.8814 41.0244 34.5534 41.0244C27.2255 41.0244 21.2637 35.9123 21.2637 29.6287C21.2637 23.3452 27.2255 18.2331 34.5534 18.2331ZM34.5534 22.7913C32.4386 22.7913 30.4104 23.5117 28.9151 24.794C27.4197 26.0762 26.5796 27.8153 26.5796 29.6287C26.5796 31.4421 27.4197 33.1812 28.9151 34.4635C30.4104 35.7458 32.4386 36.4661 34.5534 36.4661C36.6682 36.4661 38.6964 35.7458 40.1918 34.4635C41.6872 33.1812 42.5273 31.4421 42.5273 29.6287C42.5273 27.8153 41.6872 26.0762 40.1918 24.794C38.6964 23.5117 36.6682 22.7913 34.5534 22.7913Z" fill="#0F0F0F"/>
</svg>
