<svg width="70" height="70" viewBox="0 0 70 60" fill="none" xmlns="http://www.w3.org/2000/svg">
<path d="M35.3045 0C16.2224 0 0.751099 13.2663 0.751099 29.6287C0.751099 45.9912 16.2224 59.2575 35.3045 59.2575C54.3867 59.2575 69.858 45.9912 69.858 29.6287C69.858 13.2663 54.3867 0 35.3045 0ZM52.276 20.2982L46.6035 43.211C46.186 44.8357 45.0572 45.2307 43.4822 44.4653L34.8438 39.0087L30.6801 42.4506C30.277 42.895 29.6522 43.1789 28.9525 43.1789C28.9467 43.1789 28.9438 43.1789 28.9381 43.1789L29.5514 35.6384L45.5612 23.2388C46.2522 22.7129 45.4057 22.4141 44.4871 22.94L24.7082 33.6212L16.185 31.3398C14.3421 30.8386 14.2903 29.7596 16.5737 28.9843L49.8775 17.9772C51.4266 17.4933 52.7742 18.2933 52.2732 20.3006L52.276 20.2982Z" fill="#0F0F0F"/>
</svg>
