<svg width="76" height="156" viewBox="0 0 76 156" fill="none" xmlns="http://www.w3.org/2000/svg">
<ellipse cx="38" cy="75.3715" rx="38" ry="38.5429" fill="black"/>
<ellipse cx="38" cy="75.3715" rx="13.0286" ry="12.4857" fill="white"/>
<path d="M18.4572 91.2411L27.161 1H46.4505L27.8667 77.1625L60.8 58.4681L27.8667 155.171L42.6867 77.1625L18.4572 91.2411Z" fill="white" stroke="black" stroke-width="2"/>
<path d="M15.8874 53.3711C10.3472 58.9112 9.42386 62.6047 7.80798 68.6065" stroke="white"/>
<path d="M52.5907 102.761C59.5378 99.1386 61.5266 95.8923 64.8686 90.6517" stroke="white"/>
<path d="M15.6564 59.1421C13.5789 61.2196 13.348 61.9122 12.6555 65.1439" stroke="white"/>
<path d="M53.9758 97.9664C56.6706 96.7957 57.1394 96.2361 58.9691 93.4837" stroke="white"/>
<path d="M17.2724 47.6003C6.88459 55.6797 5.73039 62.6049 3.65283 73.4544" stroke="white"/>
<path d="M48.4356 108.001C60.9154 103.825 64.3016 97.6752 69.8606 88.1293" stroke="white"/>
<circle cx="38" cy="75.9143" r="0.585714" stroke="black"/>
</svg>
