<svg width="32" height="25" viewBox="0 0 32 25" fill="none" xmlns="http://www.w3.org/2000/svg">
<path d="M24.8686 0.717041H7.10384C5.42177 0.718769 3.80918 1.2925 2.61978 2.31238C1.43038 3.33226 0.761292 4.71502 0.759277 6.15734L0.759277 19.2141C0.761292 20.6564 1.43038 22.0392 2.61978 23.059C3.80918 24.0789 5.42177 24.6527 7.10384 24.6544H24.8686C26.5507 24.6527 28.1633 24.0789 29.3527 23.059C30.5421 22.0392 31.2111 20.6564 31.2132 19.2141V6.15734C31.2111 4.71502 30.5421 3.33226 29.3527 2.31238C28.1633 1.2925 26.5507 0.718769 24.8686 0.717041ZM7.10384 2.89316H24.8686C25.6284 2.89444 26.3704 3.09066 26.999 3.45656C27.6277 3.82247 28.1143 4.34131 28.3962 4.94633L18.6788 13.2798C17.9637 13.8905 16.9955 14.2334 15.9862 14.2334C14.9769 14.2334 14.0087 13.8905 13.2936 13.2798L3.57626 4.94633C3.85815 4.34131 4.34473 3.82247 4.97339 3.45656C5.60206 3.09066 6.34403 2.89444 7.10384 2.89316ZM24.8686 22.4783H7.10384C6.09423 22.4783 5.12597 22.1344 4.41207 21.5222C3.69817 20.91 3.2971 20.0798 3.2971 19.2141V7.78944L11.4993 14.8183C12.6904 15.837 14.304 16.4091 15.9862 16.4091C17.6685 16.4091 19.2821 15.837 20.4731 14.8183L28.6753 7.78944V19.2141C28.6753 20.0798 28.2743 20.91 27.5604 21.5222C26.8465 22.1344 25.8782 22.4783 24.8686 22.4783Z" fill="#0F0F0F"/>
</svg>
