<svg width="141" height="141" viewBox="0 0 141 141" fill="none" xmlns="http://www.w3.org/2000/svg">
<path fill-rule="evenodd" clip-rule="evenodd" d="M23.5 48.6569C23.5 47.8394 23.5 47.4306 23.6522 47.0631C23.8045 46.6955 24.0935 46.4065 24.6716 45.8284L39.9534 30.5466C40.5315 29.9685 40.8205 29.6795 41.1881 29.5272C41.5556 29.375 41.9644 29.375 42.7819 29.375H98.2181C99.0356 29.375 99.4444 29.375 99.8119 29.5272C100.179 29.6795 100.469 29.9685 101.047 30.5466L116.328 45.8284C116.906 46.4065 117.196 46.6955 117.348 47.0631C117.5 47.4306 117.5 47.8394 117.5 48.6569V63.625H23.5V48.6569ZM89.9651 65.625H117.5V113.5C117.5 115.386 117.5 116.328 116.914 116.914C116.328 117.5 115.386 117.5 113.5 117.5H27.5C25.6144 117.5 24.6716 117.5 24.0858 116.914C23.5 116.328 23.5 115.386 23.5 113.5V65.625H51.0329C50.9157 66.058 50.9157 66.6647 50.9157 67.5625V92.0417C50.9157 96.5349 50.9157 98.7816 51.4968 99.9891C52.794 102.685 55.9094 103.975 58.7327 102.986C59.9974 102.543 61.586 100.955 64.7632 97.7775C66.2348 96.306 66.9706 95.5702 67.7529 95.1565C69.471 94.2481 71.5271 94.2481 73.2452 95.1565C74.0275 95.5702 74.7633 96.3059 76.2348 97.7774L76.2349 97.7775C79.4121 100.955 81.0007 102.543 82.2654 102.986C85.0887 103.975 88.2041 102.685 89.5013 99.9891C90.0824 98.7816 90.0824 96.5349 90.0824 92.0417V67.5625C90.0824 66.6647 90.0824 66.058 89.9651 65.625Z" fill="#EDEBEB"/>
</svg>
