<svg width="120" height="123" viewBox="0 0 120 123" fill="none" xmlns="http://www.w3.org/2000/svg">
<path d="M59.3081 12.8125C59.3081 10.2784 60.198 7.80127 61.8652 5.69426C63.5325 3.58726 65.9021 1.94505 68.6746 0.975299C71.4471 0.00555146 74.4979 -0.248179 77.4412 0.246194C80.3845 0.740567 83.088 1.96084 85.21 3.7527C87.332 5.54456 88.7771 7.82753 89.3625 10.3129C89.948 12.7983 89.6475 15.3745 88.4991 17.7156C87.3507 20.0568 85.4059 22.0578 82.9107 23.4657C80.4156 24.8736 77.482 25.625 74.4811 25.625C70.457 25.625 66.5977 24.2751 63.7522 21.8723C60.9067 19.4695 59.3081 16.2106 59.3081 12.8125ZM99.8564 51.25L84.9626 36.9C82.9708 34.9708 80.5132 33.4239 77.7548 32.3631C74.9965 31.3023 72.0012 30.7523 68.9703 30.75H17.8434L0 54.8631L15.44 63.0375L27.9425 46.125H44.1351L36.4819 61.9305C34.575 65.8896 34.3993 70.2926 35.9862 74.3512C37.573 78.4097 40.8189 81.8588 45.1426 84.0807L71.4465 96.719V123H89.6541V87.781L62.7129 74.825L74.8028 50.4044L91.5901 66.625H120V51.25H99.8564ZM31.3413 87.2685L28.9136 92.25H4.68541V107.625H41.1006L46.5143 96.5345L39.1402 92.988C36.2258 91.411 33.5986 89.4843 31.3413 87.2685Z" fill="#0F0F0F"/>
</svg>
