<svg width="141" height="145" viewBox="0 0 141 145" fill="none" xmlns="http://www.w3.org/2000/svg">
<path fill-rule="evenodd" clip-rule="evenodd" d="M70.9026 120.641C75.1528 118.571 111.625 99.8337 111.625 66.4584C111.625 43.1013 93.2127 24.1667 70.5 24.1667C47.7873 24.1667 29.375 43.1013 29.375 66.4584C29.375 99.8337 65.8472 118.571 70.0974 120.641C70.3601 120.769 70.6399 120.769 70.9026 120.641ZM70.5 84.5834C80.234 84.5834 88.125 76.4685 88.125 66.4584C88.125 56.4482 80.234 48.3334 70.5 48.3334C60.766 48.3334 52.875 56.4482 52.875 66.4584C52.875 76.4685 60.766 84.5834 70.5 84.5834Z" fill="#EDEBEB"/>
</svg>
